<?xml version="1.0" encoding="UTF-8"?>
<svg version="1.1" xmlns="http://www.w3.org/2000/svg" width="43" height="43">
<path d="M0 0 C3.375 0.3125 3.375 0.3125 7 1 C9 4 9 4 9 7 C9.7520874 6.99476318 10.5041748 6.98952637 11.27905273 6.98413086 C14.66519342 6.96342773 18.05132084 6.95036123 21.4375 6.9375 C22.62150391 6.92912109 23.80550781 6.92074219 25.02539062 6.91210938 C26.15009766 6.90888672 27.27480469 6.90566406 28.43359375 6.90234375 C29.47572021 6.89710693 30.51784668 6.89187012 31.59155273 6.88647461 C34 7 34 7 35 8 C34.63842412 13.66468873 33.14459842 21.85540158 29 26 C26.30345146 26.07319621 23.63308542 26.09242537 20.9375 26.0625 C20.17888672 26.05798828 19.42027344 26.05347656 18.63867188 26.04882812 C16.75908129 26.0370068 14.87953101 26.01907078 13 26 C9.40272079 19.11976695 6.23313726 12.44379088 4 5 C2.68 5 1.36 5 0 5 C0 3.35 0 1.7 0 0 Z M12 12 C12.99 14.97 13.98 17.94 15 21 C18.96 21 22.92 21 27 21 C27.99 18.03 28.98 15.06 30 12 C24.06 12 18.12 12 12 12 Z " fill="#FFFFFF" transform="translate(4,5)"/>
<path d="M0 0 C1.65 0.33 3.3 0.66 5 1 C5 2.32 5 3.64 5 5 C3.125 5.625 3.125 5.625 1 6 C0.34 5.34 -0.32 4.68 -1 4 C-0.625 1.875 -0.625 1.875 0 0 Z " fill="#FFFFFF" transform="translate(29,32)"/>
<path d="M0 0 C1.65 0.33 3.3 0.66 5 1 C4.6875 2.9375 4.6875 2.9375 4 5 C3.01 5.33 2.02 5.66 1 6 C0.34 5.67 -0.32 5.34 -1 5 C-0.67 3.35 -0.34 1.7 0 0 Z " fill="#FFFFFF" transform="translate(17,32)"/>
</svg>
