<svg width="85" height="95" viewBox="0 0 85 95" fill="none" xmlns="http://www.w3.org/2000/svg">
<g id="Group 30">
<path id="Vector" d="M80.8998 69.4474C78.8556 72.9498 69.6266 72.7007 56.99 68.3066C57.5934 64.5901 58.035 60.6385 58.2953 56.5301C61.7593 54.2521 64.9962 51.8975 67.9465 49.5202C78.1078 58.1567 82.9422 65.9434 80.898 69.4474M42.4991 91.3965C38.4106 91.3965 34.0161 83.3608 31.5426 70.3286C35.0963 68.9876 38.7748 67.3889 42.4991 65.5585C46.2234 67.3889 49.902 68.9876 53.4539 70.3269C50.9804 83.3591 46.5841 91.3947 42.4991 91.3947M4.09851 69.4474C2.57677 66.8368 4.93589 61.7392 10.4106 55.8143C12.33 53.7383 14.5607 51.6258 17.0447 49.5167C19.9967 51.894 23.2337 54.2504 26.7012 56.5284C26.9616 60.6368 27.4031 64.5901 28.0083 68.3066C15.3717 72.7007 6.14275 72.9515 4.09851 69.4474ZM4.09851 25.5509C5.02739 23.9556 7.49207 23.1405 11.0739 23.1405C13.3591 23.1405 16.0965 23.4731 19.1805 24.1471C21.9565 24.7549 24.9208 25.6101 28.0083 26.6847C27.4049 30.4029 26.9616 34.3581 26.7012 38.4699C23.2373 40.7479 20.0002 43.1025 17.05 45.478C6.88688 36.8415 2.05428 29.0549 4.09851 25.5509ZM42.4991 3.60176C46.5858 3.60176 50.9804 11.6391 53.4539 24.6696C49.9002 26.0106 46.2217 27.6094 42.4974 29.4398C38.7731 27.6094 35.0945 26.0106 31.5409 24.6696C34.0144 11.6391 38.4107 3.60176 42.4974 3.60176M58.4836 42.3397C61.0099 44.0656 63.3549 45.7932 65.4959 47.4983C63.3549 49.2033 61.0099 50.9327 58.4836 52.6568C58.5452 50.9553 58.5785 49.2346 58.5785 47.4983C58.5785 45.7619 58.5452 44.0412 58.4836 42.3397ZM45.986 31.218C48.7568 29.9135 51.4361 28.7728 53.9976 27.7905C54.418 30.4778 54.7575 33.3479 55.0021 36.3731C53.5437 35.4709 52.057 34.581 50.5371 33.7137C49.0206 32.8464 47.5006 32.0174 45.9842 31.2198M29.9927 36.3731C30.2373 33.3445 30.5768 30.4725 30.999 27.7835C33.6132 28.7867 36.2961 29.9327 39.0194 31.2145C37.4994 32.0139 35.9776 32.8446 34.4594 33.7137C32.9412 34.581 31.4529 35.4709 29.9945 36.3731M26.5129 52.6585C23.9867 50.9344 21.6434 49.2067 19.5024 47.5017C21.6873 45.7636 24.0324 44.0343 26.5129 42.3415C26.4514 44.043 26.4179 45.7637 26.4179 47.5C26.4179 49.2364 26.4514 50.9553 26.5129 52.6585ZM39.0194 63.7838C36.2468 65.0883 33.564 66.2342 31.0008 67.2165C30.5785 64.5275 30.239 61.6538 29.9945 58.6252C31.4529 59.5274 32.9412 60.4173 34.4594 61.2846C35.9794 62.1519 37.5012 62.9844 39.0194 63.7838ZM55.0038 58.6252C54.7593 61.6538 54.4198 64.5274 53.9976 67.2147C51.4361 66.2324 48.7515 65.0865 45.9807 63.782C47.4989 62.9826 49.0206 62.1519 50.5406 61.2846C52.0588 60.4173 53.5472 59.5274 55.0056 58.6252M48.9732 58.6008C46.7776 59.8548 44.6172 61.0147 42.4991 62.0875C40.381 61.0147 38.2189 59.8565 36.0252 58.6008C33.8314 57.3469 31.7361 56.0738 29.7376 54.7938C29.6163 52.4426 29.5512 50.0097 29.5512 47.5C29.5512 44.9904 29.6163 42.5609 29.7376 40.2097C31.766 38.9088 33.8631 37.6339 36.0252 36.3992C38.2224 35.1435 40.381 33.9906 42.5009 32.9178C44.6507 34.0063 46.8146 35.1661 48.9732 36.3992C51.1669 37.6531 53.2622 38.9262 55.2589 40.2062C55.3803 42.5574 55.4454 44.9904 55.4454 47.5C55.4454 50.0097 55.3803 52.4409 55.2589 54.7938C53.2622 56.0738 51.1669 57.3469 48.9732 58.6008ZM73.9754 23.1336C77.5396 23.1336 79.9674 23.9521 80.8998 25.5509C82.9423 29.0549 78.1096 36.8415 67.9483 45.478C64.998 43.1025 61.7611 40.7461 58.2971 38.4681C58.0368 34.3615 57.5951 30.4098 56.9917 26.695C63.8598 24.3073 69.7304 23.1336 73.9772 23.1336M70.3848 47.5C72.8108 45.4189 75.001 43.3307 76.8993 41.2774C83.6336 33.9906 85.9558 28.017 83.6143 24.0009C81.271 19.9848 74.8832 18.9886 65.1423 21.1203C62.3961 21.7194 59.4758 22.5554 56.4411 23.5934C55.8324 20.4725 55.1024 17.5518 54.2544 14.8958C51.2479 5.47912 47.1822 0.5 42.4991 0.5C37.816 0.5 33.7487 5.47738 30.7422 14.8958C29.8942 17.55 29.1641 20.4707 28.5572 23.5934C25.5225 22.5554 22.6021 21.7194 19.856 21.1203C10.1133 18.9886 3.72728 19.9848 1.38574 24.0009C-0.955806 28.017 1.36642 33.9906 8.10078 41.2774C9.999 43.3324 12.1892 45.4189 14.617 47.5C12.191 49.5812 9.999 51.6694 8.10078 53.7227C1.36642 61.0095 -0.955806 66.983 1.38574 70.9991C2.92507 73.6376 6.21308 74.9735 11.0527 74.9735C13.5755 74.9735 16.5205 74.6112 19.856 73.8815C22.6021 73.2824 25.5225 72.4464 28.5572 71.4084C29.1641 74.5293 29.896 77.4499 30.7422 80.1059C33.7505 89.5226 37.8143 94.5 42.4991 94.5C47.184 94.5 51.2479 89.5226 54.2544 80.1059C55.1024 77.4517 55.8324 74.5293 56.4411 71.4084C59.4758 72.4464 62.3961 73.2824 65.1423 73.8815C68.4795 74.613 71.4246 74.9735 73.9473 74.9735C78.7852 74.9735 82.0749 73.6394 83.6143 70.9991C85.954 66.983 83.6336 61.0095 76.8993 53.7227C75.001 51.6676 72.8108 49.5812 70.3848 47.5Z" fill="black"/>
<path id="Vector_2" d="M42.5067 51.5603C40.2425 51.5603 38.4006 49.7369 38.4006 47.4955C38.4006 45.2541 40.2425 43.4289 42.5067 43.4289C44.7708 43.4289 46.6128 45.2524 46.6128 47.4955C46.6128 49.7387 44.7708 51.5603 42.5067 51.5603ZM42.5067 40.3271C38.515 40.3271 35.2674 43.5421 35.2674 47.4937C35.2674 51.4454 38.515 54.6603 42.5067 54.6603C46.4984 54.6603 49.7459 51.4454 49.7459 47.4937C49.7459 43.5421 46.4984 40.3271 42.5067 40.3271Z" fill="black"/>
</g>
</svg>
