<svg width="100" height="94" viewBox="0 0 100 94" fill="none" xmlns="http://www.w3.org/2000/svg">
<g id="Group 28">
<path id="Vector" d="M12.9661 4.60977L46.4672 38.6347L54.9882 47.1764L12.9723 89.3047L4.13317 80.442L37.3141 47.1743L4.12906 13.4704L12.9661 4.60771L12.9661 4.60977ZM59.0598 47.2402L58.0871 46.1413L48.54 36.5707L12.9805 0.453124L0.00610918 13.4602L33.1912 47.164L-5.68555e-07 80.4461L12.9723 93.4531L59.0598 47.2422L59.0598 47.2402Z" fill="black"/>
<path id="Vector_2" d="M53.9057 4.60977L87.4088 38.6347L95.9277 47.1764L53.9118 89.3047L45.0728 80.442L78.2537 47.1743L45.0687 13.4704L53.9057 4.60771L53.9057 4.60977ZM99.9994 47.2402L99.0266 46.1413L89.4795 36.5707L53.918 0.453124L40.9436 13.4602L74.1287 47.164L40.9375 80.4461L53.9098 93.4531L99.9973 47.2422L99.9994 47.2402Z" fill="black"/>
</g>
</svg>
