<svg width="123" height="59" viewBox="0 0 123 59" fill="none" xmlns="http://www.w3.org/2000/svg">
<g id="Logo" clip-path="url(#clip0_4356_134)">
<path id="Vector" d="M11.3573 3.27787L0.5 14.5695L8.527 22.833L16.078 14.9787V59H27.3288V3.27787H11.3573Z" fill="white"/>
<path id="Vector_2" d="M43.7359 14.5836H60.6124V47.7619H43.7359V14.5836ZM45.3767 0V3.34544H32.4851V59H71.8628V3.34544H58.9716V0H45.3767Z" fill="white"/>
<path id="Vector_3" d="M122.458 3.27787H111.249H111.207V11.1174L99.1734 23.1663L87.1393 11.1174V3.27787H87.0976H75.888H75.8468V15.7223L91.2396 31.1348L91.2355 31.1389L91.2396 31.1431L75.8468 46.5551V59H75.888H87.0976H87.1393V51.1609L99.1734 39.1115L111.207 51.1609V59H111.249H122.458H122.5V46.5551L107.107 31.1431L107.111 31.1389L107.107 31.1348L122.5 15.7223V3.27787H122.458Z" fill="white"/>
</g>
<defs>
<clipPath id="clip0_4356_134">
<rect width="122" height="59" fill="white" transform="translate(0.5)"/>
</clipPath>
</defs>
</svg>
