<svg width="88" height="86" viewBox="0 0 88 86" fill="none" xmlns="http://www.w3.org/2000/svg">
<path id="Vector" d="M45.5504 69.8015L45.5504 63.2832C56.0044 62.578 64.3817 54.3326 65.0982 44.0433L71.7226 44.0433C70.9892 57.9202 59.6511 69.0813 45.5504 69.8015ZM16.4751 44.0433L23.0977 44.0433C23.8142 54.3326 32.1916 62.578 42.6456 63.2832L42.6456 69.8015C28.5466 69.0813 17.2068 57.9202 16.4751 44.0433ZM42.6473 15.4261L42.6473 21.9444C32.1933 22.6496 23.8159 30.895 23.0994 41.1843L16.4768 41.1843C17.2102 27.3075 28.5483 16.1463 42.6473 15.4261ZM45.5504 41.1843L45.5504 24.8102C54.4021 25.5037 61.482 32.4721 62.1883 41.1843L45.5504 41.1843ZM45.5504 44.0433L62.1883 44.0433C61.4837 52.7555 54.4038 59.7239 45.5504 60.4175L45.5504 44.0433ZM42.6473 44.0433L42.6473 60.4174C33.7956 59.7239 26.7156 52.7555 26.011 44.0433L42.6473 44.0433ZM42.6473 41.1843L26.011 41.1843C26.7156 32.4721 33.7956 25.5037 42.6473 24.8102L42.6473 41.1843ZM71.7226 41.1843L65.0982 41.1843C64.3817 30.895 56.0044 22.6496 45.5504 21.9445L45.5504 15.4261C59.6511 16.1463 70.9892 27.3075 71.7226 41.1843ZM87.3324 41.1843L74.6274 41.1843C73.8906 25.7304 61.2517 13.2923 45.5504 12.5654L45.5504 0.0622636L42.6473 0.0622631L42.6473 12.5654C26.9477 13.2906 14.3088 25.7304 13.5703 41.1843L0.865227 41.1843L0.865227 44.0416L13.5703 44.0417C14.3087 59.4939 26.946 71.9337 42.6472 72.6606L42.6472 85.1637L45.5504 85.1637L45.5504 72.6606C61.2517 71.9337 73.8889 59.4956 74.6274 44.0417L87.3324 44.0417L87.3324 41.1843Z" fill="#6DE325"/>
</svg>
