<svg width="76" height="85" viewBox="0 0 76 85" fill="none" xmlns="http://www.w3.org/2000/svg">
<path id="Vector" d="M72.2251 62.0829C70.3913 65.2007 62.112 64.979 50.7759 61.0674C51.3172 57.7589 51.7133 54.241 51.9469 50.5837C55.0543 48.5558 57.9582 46.4597 60.6048 44.3434C69.7205 52.0318 74.0574 58.9635 72.2235 62.0829M37.7763 81.6223C34.1086 81.6223 30.1663 74.4689 27.9473 62.8674C31.1353 61.6736 34.4353 60.2503 37.7763 58.6209C41.1173 60.2503 44.4173 61.6736 47.6037 62.8658C45.3848 74.4673 41.4409 81.6208 37.7763 81.6208M3.32755 62.0829C1.96241 59.7589 4.07875 55.2209 8.99008 49.9465C10.7119 48.0984 12.713 46.2178 14.9414 44.3403C17.5896 46.4566 20.4935 48.5542 23.6042 50.5821C23.8377 54.2395 24.2338 57.7589 24.7767 61.0674C13.4406 64.979 5.16141 65.2022 3.32755 62.0829ZM3.32755 23.0055C4.16084 21.5854 6.37187 20.8598 9.58507 20.8598C11.6351 20.8598 14.0908 21.1559 16.8574 21.7559C19.3478 22.297 22.007 23.0582 24.7767 24.0148C24.2354 27.3249 23.8377 30.8458 23.6042 34.5063C20.4967 36.5341 17.5928 38.6303 14.9462 40.745C5.82896 33.0566 1.49369 26.1249 3.32755 23.0055ZM37.7763 3.46605C41.4424 3.46605 45.3848 10.6211 47.6037 22.221C44.4158 23.4148 41.1158 24.8381 37.7748 26.4675C34.4337 24.8381 31.1337 23.4148 27.9458 22.221C30.1647 10.6211 34.1086 3.46605 37.7748 3.46605M52.1158 37.9512C54.3821 39.4876 56.4858 41.0256 58.4065 42.5434C56.4858 44.0612 54.3821 45.6008 52.1158 47.1357C52.171 45.6209 52.201 44.0892 52.201 42.5434C52.201 40.9977 52.171 39.4659 52.1158 37.9512ZM40.9043 28.052C43.39 26.8908 45.7936 25.8753 48.0914 25.0009C48.4686 27.3931 48.7732 29.9481 48.9926 32.6411C47.6842 31.838 46.3506 31.0458 44.987 30.2737C43.6266 29.5016 42.2631 28.7636 40.9027 28.0536M26.557 32.6396C26.7763 29.9435 27.0809 27.3869 27.4597 24.9931C29.8049 25.8861 32.2116 26.9063 34.6547 28.0474C33.2911 28.759 31.9259 29.4985 30.564 30.2722C29.202 31.0442 27.8669 31.8365 26.5585 32.6396M23.4353 47.1372C21.169 45.6023 19.0668 44.0644 17.1462 42.5465C19.1063 40.9992 21.21 39.4597 23.4353 37.9527C23.38 39.4675 23.3501 40.9992 23.3501 42.545C23.3501 44.0907 23.38 45.6209 23.4353 47.1372ZM34.6547 57.041C32.1674 58.2023 29.7607 59.2224 27.4613 60.0968C27.0825 57.703 26.7779 55.1449 26.5585 52.4488C27.8669 53.2519 29.202 54.0442 30.564 54.8162C31.9275 55.5883 33.2927 56.3294 34.6547 57.041ZM48.9941 52.4488C48.7747 55.1449 48.4702 57.703 48.0914 60.0953C45.7936 59.2209 43.3852 58.2007 40.8995 57.0395C42.2615 56.3279 43.6266 55.5883 44.9902 54.8162C46.3522 54.0442 47.6874 53.2519 48.9957 52.4488M43.5841 52.4271C41.6145 53.5434 39.6764 54.5759 37.7763 55.531C35.8762 54.5759 33.9366 53.5449 31.9686 52.4271C30.0006 51.3108 28.1209 50.1775 26.3281 49.038C26.2192 46.945 26.1608 44.7791 26.1608 42.545C26.1608 40.3109 26.2192 38.1481 26.3281 36.0551C28.1478 34.8969 30.029 33.7621 31.9686 32.6628C33.9397 31.545 35.8762 30.5187 37.7779 29.5636C39.7065 30.5326 41.6476 31.5652 43.5841 32.6628C45.5521 33.7791 47.4317 34.9124 49.223 36.052C49.3319 38.145 49.3903 40.3109 49.3903 42.545C49.3903 44.7791 49.3319 46.9434 49.223 49.038C47.4317 50.1775 45.5521 51.3108 43.5841 52.4271ZM66.0133 20.8536C69.2107 20.8536 71.3887 21.5823 72.2251 23.0055C74.0574 26.1249 69.7221 33.0566 60.6064 40.745C57.9598 38.6303 55.056 36.5326 51.9485 34.5047C51.7149 30.8489 51.3187 27.3311 50.7774 24.0241C56.9387 21.8986 62.2052 20.8536 66.0149 20.8536M62.7923 42.545C64.9686 40.6923 66.9334 38.8334 68.6363 37.0055C74.6776 30.5187 76.7608 25.2008 74.6602 21.6257C72.5581 18.0505 66.8276 17.1637 58.0892 19.0614C55.6256 19.5947 53.0058 20.3389 50.2835 21.2629C49.7374 18.4846 49.0825 15.8846 48.3218 13.5203C45.6247 5.13738 41.9774 0.704834 37.7763 0.704834C33.5751 0.704834 29.9264 5.13583 27.2293 13.5203C26.4686 15.8831 25.8136 18.4831 25.2691 21.2629C22.5467 20.3389 19.9269 19.5947 17.4634 19.0614C8.72336 17.1637 2.99453 18.0505 0.893952 21.6257C-1.20662 25.2008 0.876618 30.5187 6.91794 37.0055C8.62081 38.8349 10.5856 40.6923 12.7635 42.545C10.5872 44.3977 8.62081 46.2566 6.91794 48.0845C0.876618 54.5713 -1.20662 59.8891 0.893952 63.4643C2.27487 65.8131 5.2245 67.0022 9.56611 67.0022C11.8292 67.0022 14.4711 66.6798 17.4634 66.0302C19.9269 65.4968 22.5467 64.7526 25.2691 63.8286C25.8136 66.6069 26.4702 69.2069 27.2293 71.5712C29.928 79.9541 33.5736 84.3851 37.7763 84.3851C41.979 84.3851 45.6247 79.9541 48.3218 71.5712C49.0825 69.2084 49.7374 66.6069 50.2835 63.8286C53.0058 64.7526 55.6256 65.4968 58.0892 66.0302C61.083 66.6813 63.725 67.0022 65.9881 67.0022C70.3281 67.0022 73.2793 65.8147 74.6602 63.4643C76.7592 59.8891 74.6776 54.5713 68.6363 48.0845C66.9334 46.255 64.9686 44.3977 62.7923 42.545Z" fill="#FFCE1C"/>
</svg>
