<svg width="88" height="88" viewBox="0 0 88 88" fill="none" xmlns="http://www.w3.org/2000/svg">
<path id="Vector" d="M45.5607 71.6326V64.9666C56.0907 64.2454 64.5289 55.8131 65.2506 45.2905H71.9232C71.1844 59.4819 59.7639 70.8961 45.5607 71.6326ZM16.2741 45.2905H22.9449C23.6666 55.8131 32.1049 64.2454 42.6348 64.9666V71.6326C28.4334 70.8961 17.0111 59.4819 16.2741 45.2905ZM42.6365 16.0246V22.6907C32.1065 23.4119 23.6682 31.8442 22.9465 42.3667H16.2758C17.0146 28.1753 28.435 16.7611 42.6365 16.0246ZM45.5607 42.3667V25.6214C54.4767 26.3306 61.6082 33.457 62.3196 42.3667H45.5607ZM45.5607 45.2905H62.3196C61.6099 54.2002 54.4784 61.3266 45.5607 62.0358V45.2905ZM42.6365 45.2905V62.0358C33.7205 61.3266 26.589 54.2002 25.8793 45.2905H42.6365ZM42.6365 42.3667H25.8793C26.589 33.457 33.7205 26.3306 42.6365 25.6214V42.3667ZM71.9232 42.3667H65.2506C64.5289 31.8442 56.0907 23.4119 45.5607 22.6907V16.0246C59.7639 16.7611 71.1844 28.1753 71.9232 42.3667ZM87.6464 42.3667H74.8491C74.1069 26.5625 61.3761 13.8424 45.5607 13.0991V0.3125H42.6365V13.0991C26.8228 13.8407 14.092 26.5625 13.3482 42.3667H0.550781V45.2888H13.3482C14.092 61.0914 26.8211 73.8132 42.6365 74.5565V87.3431H45.5607V74.5565C61.3761 73.8132 74.1052 61.0931 74.8491 45.2888H87.6464V42.3667Z" fill="#13EAED"/>
</svg>
