<svg width="55" height="85" viewBox="0 0 55 85" fill="none" xmlns="http://www.w3.org/2000/svg">
<path id="Vector" d="M27.8194 40.4508L34.3459 34.1695L36.743 31.8622V25.9752H44.0951V35.3035L34.3459 44.7549L34.2815 44.8179L34.3459 44.878L44.4015 54.2735V63.5836H36.743L36.7374 58.4825L34.3459 55.9976L27.6585 49.0465L18.3613 58.4825V58.8251L18.3432 63.585H11.0093V54.3364L20.4142 44.8486L11.0093 35.2798V25.9766H18.6678V31.8468L27.8194 40.4522V40.4508ZM37.0998 0.289062H18.3124V5.06439H0.496094V84.4972H54.9147V5.06439H37.0984V0.289062H37.0998ZM34.5698 30.9393L32.8389 32.6048L27.8026 37.4528L20.8424 30.9086V23.805H8.83612V36.1691L9.45882 36.8026L17.3622 44.8431L9.46582 52.8094L8.83612 53.4443V65.758H20.5093L20.5177 63.5934L20.5331 59.3774L27.6403 52.1634L32.7787 57.505L34.5642 59.3592L34.5684 63.5878L34.5712 65.758H46.5747V53.3338L45.8862 52.6891L37.4328 44.7899L45.6078 36.8641L46.2682 36.2237V23.805H34.5684V30.9393H34.5698ZM34.9253 2.46069V7.23602H52.7416V82.3242H2.67066V7.23602H20.487V2.46069H34.9267H34.9253Z" fill="#6DE325"/>
</svg>
