<svg width="54" height="84" viewBox="0 0 54 84" fill="none" xmlns="http://www.w3.org/2000/svg">
<path id="Vector" d="M27.3639 40.2207L33.7458 34.0786L36.0898 31.8224L36.0898 26.0658H43.279L43.279 35.1875L33.7458 44.4295L33.6829 44.491L33.7458 44.5498L43.5787 53.7371V62.841H36.0898L36.0843 57.8529L33.7458 55.4231L27.2066 48.6259L18.1153 57.8529V58.1879L18.0975 62.8424H10.9261V53.7986L20.1227 44.5211L10.9261 35.1642V26.0672L18.415 26.0672V31.8074L27.3639 40.2221V40.2207ZM36.4387 0.94873L18.0674 0.94873V5.61826L0.645813 5.61826L0.645813 83.2913H53.8589L53.8589 5.61826L36.4373 5.61826V0.94873H36.4387ZM33.9647 30.9186L32.2721 32.5471L27.3475 37.2877L20.5414 30.8885V23.9423L8.8011 23.9423V36.0325L9.41 36.6519L17.1383 44.5143L9.41685 52.3041L8.8011 52.9249V64.9659H20.2157L20.2239 62.8492L20.239 58.7266L27.1887 51.6724L32.2133 56.8957L33.9593 58.7088L33.9634 62.8437L33.9661 64.9659H45.7037V52.8169L45.0305 52.1865L36.7643 44.4623L44.7582 36.7121L45.404 36.0858L45.404 23.9423L33.9634 23.9423L33.9634 30.9186H33.9647ZM34.3123 3.07225V7.74178L51.7339 7.74178L51.7339 81.1664H2.77221L2.77221 7.74178L20.1938 7.74178V3.07225L34.3137 3.07225H34.3123Z" fill="#13EAED"/>
</svg>
